<?xml version="1.0" encoding="UTF-8"?>
<svg width="512" height="512" viewBox="0 0 512 512" fill="none" xmlns="http://www.w3.org/2000/svg">
  <rect width="512" height="512" fill="#000000"/>
  <path d="M256 128C176.5 128 112 192.5 112 272C112 351.5 176.5 416 256 416C335.5 416 400 351.5 400 272C400 192.5 335.5 128 256 128ZM256 384C194.1 384 144 333.9 144 272C144 210.1 194.1 160 256 160C317.9 160 368 210.1 368 272C368 333.9 317.9 384 256 384ZM256 192C211.9 192 176 227.9 176 272C176 316.1 211.9 352 256 352C300.1 352 336 316.1 336 272C336 227.9 300.1 192 256 192ZM256 320C229.5 320 208 298.5 208 272C208 245.5 229.5 224 256 224C282.5 224 304 245.5 304 272C304 298.5 282.5 320 256 320Z" fill="white"/>
</svg>
